<svg width="21" height="19" viewBox="0 0 21 19" fill="none" xmlns="http://www.w3.org/2000/svg">
<path d="M19.2036 11.2826C19.596 10.8939 19.5991 10.2608 19.2105 9.86838C18.8218 9.47598 18.1887 9.47293 17.7963 9.86156L19.2036 11.2826ZM11 18.0001L10.2963 18.7106C10.686 19.0966 11.3139 19.0966 11.7036 18.7106L11 18.0001ZM4.20364 9.86156C3.81124 9.47293 3.17808 9.47598 2.78945 9.86838C2.40081 10.2608 2.40386 10.8939 2.79627 11.2826L4.20364 9.86156ZM2.80255 11.2888C3.19837 11.6739 3.83147 11.6653 4.21664 11.2695C4.6018 10.8737 4.59317 10.2406 4.19735 9.85539L2.80255 11.2888ZM11 4.00607L10.1974 4.60259C10.3854 4.85565 10.6819 5.00519 10.9972 5.00607C11.3125 5.00694 11.6097 4.85906 11.7992 4.60705L11 4.00607ZM17.7992 9.86465C17.4052 10.2517 17.3995 10.8848 17.7865 11.2788C18.1735 11.6728 18.8067 11.6785 19.2007 11.2915L17.7992 9.86465ZM17.7963 9.86156L10.2963 17.2896L11.7036 18.7106L19.2036 11.2826L17.7963 9.86156ZM11.7036 17.2896L4.20364 9.86156L2.79627 11.2826L10.2963 18.7106L11.7036 17.2896ZM4.19735 9.85539C3.11839 8.80545 2.72034 7.23862 3.16734 5.80102L1.25753 5.20719C0.587029 7.3636 1.18411 9.71385 2.80255 11.2888L4.19735 9.85539ZM3.16734 5.80102C3.61434 4.36341 4.83068 3.29855 6.31476 3.04555L5.97867 1.07399C3.75254 1.45349 1.92803 3.05078 1.25753 5.20719L3.16734 5.80102ZM6.31476 3.04555C7.79885 2.79255 9.2993 3.39428 10.1974 4.60259L11.8026 3.40955C10.4555 1.59709 8.2048 0.694498 5.97867 1.07399L6.31476 3.04555ZM11.7992 4.60705C12.701 3.40768 14.1983 2.81394 15.677 3.0693L16.0173 1.09847C13.7993 0.71543 11.5534 1.60604 10.2007 3.40509L11.7992 4.60705ZM15.677 3.0693C17.1557 3.32466 18.3671 4.38616 18.8144 5.81853L20.7235 5.22231C20.0525 3.07377 18.2354 1.48152 16.0173 1.09847L15.677 3.0693ZM18.8144 5.81853C19.2618 7.25089 18.8698 8.81313 17.7992 9.86465L19.2007 11.2915C20.8065 9.71422 21.3945 7.37085 20.7235 5.22231L18.8144 5.81853Z" fill="#388FF3"/>
</svg>
