<svg width="18" height="16" viewBox="0 0 18 16" fill="none" xmlns="http://www.w3.org/2000/svg">
<path d="M11.2059 11.5V13.25C11.2059 13.7141 11.02 14.1592 10.689 14.4874C10.3581 14.8156 9.90921 15 9.44118 15H3.26471C2.79668 15 2.34782 14.8156 2.01687 14.4874C1.68593 14.1592 1.5 13.7141 1.5 13.25L1.5 2.75C1.5 2.28587 1.68593 1.84075 2.01687 1.51256C2.34782 1.18438 2.79668 1 3.26471 1L9.44118 1C9.90921 1 10.3581 1.18437 10.689 1.51256C11.02 1.84075 11.2059 2.28587 11.2059 2.75V4.5M16.5001 8.00008L5.07849 8.00008M5.07849 8.00008L7.72555 10.6251M5.07849 8.00008L7.72555 5.37508" stroke="#16191D" stroke-width="2" stroke-linecap="round" stroke-linejoin="round"/>
</svg>
