<svg width="32" height="30" viewBox="0 0 32 30" fill="none" xmlns="http://www.w3.org/2000/svg">
<path d="M23.7578 7.33929H22.7396C22.5942 5.64232 21.9154 4.13929 20.7033 3.07262C19.4427 1.90898 17.7942 1.27868 16.0487 1.27868H15.9518C14.2548 1.27868 12.6063 1.90898 11.2972 3.07262C10.0851 4.13929 9.40631 5.6908 9.26086 7.33929H8.24268C8.38813 5.35141 9.21237 3.55747 10.6184 2.29686C12.073 0.987771 13.9639 0.260498 15.9518 0.260498H16.0487C18.0366 0.260498 19.9275 0.987771 21.3821 2.29686C22.7881 3.55747 23.6124 5.35141 23.7578 7.33929Z" fill="#388FF3"/>
<path d="M18.7152 15.2908H13.2849C12.994 15.2908 12.7516 15.5332 12.7516 15.8241V18.7817C12.7516 19.0726 12.994 19.315 13.2849 19.315H18.6667C18.9576 19.315 19.2001 19.0726 19.2001 18.7817V15.8241C19.2001 15.5332 18.9576 15.2908 18.7152 15.2908ZM18.7152 15.2908H13.2849C12.994 15.2908 12.7516 15.5332 12.7516 15.8241V18.7817C12.7516 19.0726 12.994 19.315 13.2849 19.315H18.6667C18.9576 19.315 19.2001 19.0726 19.2001 18.7817V15.8241C19.2001 15.5332 18.9576 15.2908 18.7152 15.2908ZM18.7152 15.2908H13.2849C12.994 15.2908 12.7516 15.5332 12.7516 15.8241V18.7817C12.7516 19.0726 12.994 19.315 13.2849 19.315H18.6667C18.9576 19.315 19.2001 19.0726 19.2001 18.7817V15.8241C19.2001 15.5332 18.9576 15.2908 18.7152 15.2908ZM18.7152 15.2908H13.2849C12.994 15.2908 12.7516 15.5332 12.7516 15.8241V18.7817C12.7516 19.0726 12.994 19.315 13.2849 19.315H18.6667C18.9576 19.315 19.2001 19.0726 19.2001 18.7817V15.8241C19.2001 15.5332 18.9576 15.2908 18.7152 15.2908ZM31.4183 24.4059L29.1395 14.7089C28.9455 15.1453 28.7031 15.5817 28.4122 15.9695C27.394 17.2786 25.8425 18.0059 24.194 18.0059H21.3334C21.0425 18.0059 20.8001 17.7635 20.8001 17.4726C20.8001 17.1817 21.0425 16.9392 21.3334 16.9392H24.194C25.5516 16.9392 26.7637 16.3574 27.5879 15.2908C28.4122 14.2241 28.7031 12.915 28.4122 11.6059L27.9273 9.61803C27.7334 8.89076 27.1031 8.35742 26.3273 8.35742H5.67279C4.89704 8.35742 4.26673 8.89076 4.07279 9.61803L3.63643 11.6059C3.34552 12.915 3.63643 14.2726 4.46067 15.2908C5.28491 16.3574 6.54552 16.9392 7.85461 16.9392H10.7152C11.0061 16.9392 11.2486 17.1817 11.2486 17.4726C11.2486 17.7635 11.0061 18.0059 10.7152 18.0059H7.85461C6.20613 18.0059 4.65461 17.2786 3.63643 15.9695C3.34552 15.5817 3.1031 15.1453 2.90916 14.7089L0.630368 24.4059C0.339459 25.715 0.630368 27.0726 1.45461 28.0908C2.27885 29.1574 3.53946 29.7392 4.84855 29.7392H27.1516C28.5092 29.7392 29.7213 29.1574 30.5455 28.0908C31.4183 27.0241 31.7092 25.715 31.4183 24.4059ZM20.2667 18.7817C20.2667 19.6544 19.5879 20.3332 18.7152 20.3332H13.2849C12.4122 20.3332 11.7334 19.6544 11.7334 18.7817V15.8241C11.7334 14.9514 12.4122 14.2726 13.2849 14.2726H18.6667C19.5395 14.2726 20.2183 14.9514 20.2183 15.8241L20.2667 18.7817ZM18.7152 15.2908H13.2849C12.994 15.2908 12.7516 15.5332 12.7516 15.8241V18.7817C12.7516 19.0726 12.994 19.315 13.2849 19.315H18.6667C18.9576 19.315 19.2001 19.0726 19.2001 18.7817V15.8241C19.2001 15.5332 18.9576 15.2908 18.7152 15.2908ZM18.7152 15.2908H13.2849C12.994 15.2908 12.7516 15.5332 12.7516 15.8241V18.7817C12.7516 19.0726 12.994 19.315 13.2849 19.315H18.6667C18.9576 19.315 19.2001 19.0726 19.2001 18.7817V15.8241C19.2001 15.5332 18.9576 15.2908 18.7152 15.2908ZM18.7152 15.2908H13.2849C12.994 15.2908 12.7516 15.5332 12.7516 15.8241V18.7817C12.7516 19.0726 12.994 19.315 13.2849 19.315H18.6667C18.9576 19.315 19.2001 19.0726 19.2001 18.7817V15.8241C19.2001 15.5332 18.9576 15.2908 18.7152 15.2908Z" fill="#388FF3"/>
</svg>
