<svg width="32" height="32" viewBox="0 0 32 32" fill="none" xmlns="http://www.w3.org/2000/svg">
<path d="M30.4757 14.0115C30.2885 13.6996 28.4415 12.9018 28.4415 12.9018C28.7628 12.7359 28.9823 12.7016 28.9823 12.0154C28.9823 11.2669 28.9786 11.0174 28.4796 11.0174H26.7866C26.7798 11.0024 26.7723 10.9868 26.7654 10.9712C25.6726 8.5846 25.526 7.98141 23.896 7.16924C21.7097 6.08199 17.6108 6.0271 16.0039 6.0271C14.3971 6.0271 10.2982 6.08199 8.11372 7.16924C6.48191 7.98016 6.52246 8.39747 5.24435 10.9712C5.24435 10.9781 5.23125 10.9961 5.2194 11.0174H3.52459C3.0293 11.0174 3.02556 11.2669 3.02556 12.0154C3.02556 12.7016 3.24513 12.7359 3.56638 12.9018C3.56638 12.9018 1.78174 13.762 1.53223 14.0115C1.28272 14.261 1.0332 16.0076 1.0332 19.0018C1.0332 21.9959 1.28272 24.9901 1.28272 24.9901H2.02751C2.02751 25.8634 2.15601 25.9881 2.53028 25.9881H7.52051C7.89478 25.9881 8.01953 25.8634 8.01953 24.9901H23.9883C23.9883 25.8634 24.1131 25.9881 24.4874 25.9881H29.6024C29.8519 25.9881 29.9766 25.801 29.9766 24.9901H30.7252C30.7252 24.9901 30.9747 21.9335 30.9747 19.0018C30.9747 16.07 30.6628 14.3234 30.4757 14.0115ZM7.84862 16.8148C6.71259 16.939 5.57067 17.0027 4.42782 17.0057C3.15406 17.0057 3.1104 17.0874 3.02057 16.2921C2.98678 15.928 2.99747 15.5612 3.05238 15.1998L3.09168 15.0096H3.27882C4.02736 15.0096 4.73036 15.0414 6.05776 15.4325C6.73292 15.6351 7.36793 15.9529 7.9347 16.3719C8.20667 16.569 8.26905 16.7561 8.26905 16.7561L7.84862 16.8148ZM23.266 21.306L22.9903 21.9959H9.01758C9.01758 21.9959 9.04191 21.9579 8.70569 21.2985C8.45618 20.8107 8.76807 20.4988 9.26148 20.3217C10.2171 19.9774 13.0098 19.0018 16.0039 19.0018C18.9981 19.0018 21.8463 19.8426 22.772 20.3217C23.115 20.4988 23.5411 20.6236 23.266 21.3097V21.306ZM7.23482 12.7895C7.03333 12.8011 6.83142 12.8026 6.62975 12.7939C6.79255 12.5044 6.883 12.182 7.04207 11.8451C7.54109 10.7847 8.11185 9.58453 9.12799 9.07864C10.5964 8.34757 13.6398 8.01821 16.0039 8.01821C18.3681 8.01821 21.4115 8.34507 22.8799 9.07864C23.896 9.58453 24.4643 10.7853 24.9658 11.8451C25.1261 12.1851 25.2153 12.5101 25.3825 12.8014C25.2577 12.8082 25.1143 12.8014 24.7718 12.7895H7.23482ZM28.925 16.2896C28.7915 17.068 28.9162 17.0057 27.5801 17.0057C26.4372 17.0027 25.2954 16.939 24.1593 16.8148C23.9815 16.783 23.931 16.4829 24.0732 16.3719C24.6371 15.9482 25.273 15.63 25.9501 15.4325C27.2775 15.0414 28.0248 14.989 28.7628 15.0152C28.8124 15.017 28.8595 15.0373 28.8951 15.0717C28.9306 15.1063 28.9522 15.1528 28.9555 15.2023C28.9908 15.5654 28.9805 15.9315 28.925 16.2921V16.2896Z" fill="#388FF3"/>
</svg>
