<svg width="18" height="32" viewBox="0 0 18 32" fill="none" xmlns="http://www.w3.org/2000/svg">
<path d="M18.0035 0.96043C18.0035 0.429997 17.5735 0 17.043 0H0.956523C0.42609 0 -0.00390625 0.429997 -0.00390625 0.96043V10.6549H18.0035L18.0035 0.96043ZM4.21537 7.83657C4.21537 8.35431 3.79563 8.77406 3.27788 8.77406C2.76013 8.77406 2.34039 8.35431 2.34039 7.83657V5.44196C2.34039 4.92421 2.76013 4.50447 3.27788 4.50447C3.79563 4.50447 4.21537 4.92421 4.21537 5.44196V7.83657Z" fill="#388FF3"/>
<path d="M-0.00390625 28.9162C-0.00390625 29.4467 0.42609 29.8766 0.956523 29.8766H1.63427V31.0625C1.63427 31.5802 2.05401 31.9999 2.57176 31.9999C3.08951 31.9999 3.50925 31.5802 3.50925 31.0625V29.8766H14.3782V31.0625C14.3782 31.5802 14.798 31.9999 15.3157 31.9999C15.8335 31.9999 16.2532 31.5802 16.2532 31.0625V29.8766H17.043C17.5735 29.8766 18.0035 29.4467 18.0035 28.9162V12.5298H-0.00390625V28.9162ZM2.34039 15.3801C2.34039 14.8623 2.76013 14.4426 3.27788 14.4426C3.79563 14.4426 4.21537 14.8623 4.21537 15.3801V17.7748C4.21537 18.2926 3.79563 18.7123 3.27788 18.7123C2.76013 18.7123 2.34039 18.2926 2.34039 17.7748V15.3801Z" fill="#388FF3"/>
</svg>
