<svg width="33" height="29" viewBox="0 0 33 29" fill="none" xmlns="http://www.w3.org/2000/svg">
<path d="M30.2036 16.3306C30.596 15.942 30.5991 15.3088 30.2104 14.9164C29.8218 14.524 29.1886 14.521 28.7962 14.9096L30.2036 16.3306ZM16.9999 28.0001L16.2962 28.7106C16.686 29.0966 17.3139 29.0966 17.7036 28.7106L16.9999 28.0001ZM5.20361 14.9096C4.81121 14.521 4.17805 14.524 3.78941 14.9164C3.40078 15.3088 3.40383 15.942 3.79624 16.3306L5.20361 14.9096ZM3.80252 16.3368C4.19834 16.722 4.83144 16.7133 5.2166 16.3175C5.60177 15.9217 5.59314 15.2886 5.19732 14.9034L3.80252 16.3368ZM16.9999 4.67678L16.1973 5.2733C16.3854 5.52637 16.6818 5.6759 16.9971 5.67678C17.3124 5.67766 17.6097 5.52978 17.7992 5.27776L16.9999 4.67678ZM28.7992 14.9167C28.4052 15.3037 28.3995 15.9368 28.7865 16.3309C29.1735 16.7249 29.8066 16.7305 30.2007 16.3435L28.7992 14.9167ZM28.7962 14.9096L16.2962 27.2896L17.7036 28.7106L30.2036 16.3306L28.7962 14.9096ZM17.7036 27.2896L5.20361 14.9096L3.79624 16.3306L16.2962 28.7106L17.7036 27.2896ZM5.19732 14.9034C3.21923 12.9786 2.48946 10.106 3.30896 7.47042L1.39915 6.87659C0.356151 10.231 1.28495 13.887 3.80252 16.3368L5.19732 14.9034ZM3.30896 7.47042C4.12846 4.83481 6.35842 2.88256 9.07924 2.41873L8.74315 0.447173C5.28028 1.0375 2.44215 3.52218 1.39915 6.87659L3.30896 7.47042ZM9.07924 2.41873C11.8001 1.9549 14.5509 3.05807 16.1973 5.2733L17.8025 4.08027C15.7071 1.26087 12.206 -0.143152 8.74315 0.447173L9.07924 2.41873ZM17.7992 5.27776C19.4525 3.07892 22.1975 1.9904 24.9084 2.45856L25.2488 0.487732C21.7985 -0.108114 18.3049 1.27728 16.2007 4.07581L17.7992 5.27776ZM24.9084 2.45856C27.6194 2.92672 29.8403 4.87281 30.6604 7.49881L32.5694 6.90259C31.5257 3.56041 28.6991 1.08358 25.2488 0.487732L24.9084 2.45856ZM30.6604 7.49881C31.4805 10.1248 30.7619 12.9889 28.7992 14.9167L30.2007 16.3435C32.6986 13.89 33.6132 10.2448 32.5694 6.90259L30.6604 7.49881Z" fill="white"/>
</svg>
