<svg width="32" height="32" viewBox="0 0 32 32" fill="none" xmlns="http://www.w3.org/2000/svg">
<path d="M28.5314 17.1423H28.1127C26.2505 17.1423 24.4329 16.5399 22.9409 15.4376L20.6119 17.7666L19.2854 16.4401L21.4824 14.2431L20.3859 13.3305L17.963 15.7534L16.6365 14.4269L18.938 12.1254L17.8414 11.2128L15.3141 13.7402L13.9876 12.4137L16.3936 10.0077L14.263 8.23443C13.9947 8.01112 13.6548 7.88818 13.3057 7.88818C12.4806 7.88818 11.8093 8.55943 11.8093 9.38456V10.1992C11.8093 12.8852 9.62406 15.0705 6.93806 15.0705C5.05275 15.0705 3.31975 13.9664 2.52306 12.2576L2.29375 11.7659C2.09694 11.3437 1.66887 11.0709 1.20312 11.0709C0.53975 11.0709 0 11.6107 0 12.2742V20.2949H32C31.8321 18.5287 30.3408 17.1423 28.5314 17.1423Z" fill="#388FF3"/>
<path d="M0.361816 22.1707C0.932129 23.3198 2.1175 24.1119 3.485 24.1119H28.5315C29.899 24.1119 31.0844 23.3198 31.6547 22.1707H0.361816Z" fill="#388FF3"/>
</svg>
